<?xml version="1.0" standalone="no"?>
<!DOCTYPE svg PUBLIC "-//W3C//DTD SVG 20010904//EN"
 "http://www.w3.org/TR/2001/REC-SVG-20010904/DTD/svg10.dtd">
<svg version="1.0" xmlns="http://www.w3.org/2000/svg"
 width="1338.000000pt" height="1338.000000pt" viewBox="0 0 1338.000000 1338.000000"
 preserveAspectRatio="xMidYMid meet">
<metadata>
Created by potrace 1.11, written by Peter Selinger 2001-2013
</metadata>
<g transform="translate(0.000000,1338.000000) scale(0.100000,-0.100000)"
fill="#000000" stroke="none">
<path d="M6368 12715 c-1 -1 -86 -6 -188 -9 -102 -4 -201 -8 -220 -10 -19 -2
-83 -7 -142 -10 -58 -4 -117 -9 -130 -11 -12 -2 -63 -6 -113 -9 -49 -4 -101
-8 -115 -10 -23 -4 -59 -8 -185 -22 -27 -3 -61 -7 -75 -9 -14 -2 -52 -7 -85
-10 -33 -4 -67 -8 -75 -10 -8 -2 -35 -7 -60 -10 -116 -15 -135 -18 -325 -50
-114 -20 -282 -51 -485 -91 -14 -3 -33 -7 -42 -10 -10 -3 -30 -7 -45 -10 -81
-14 -482 -114 -693 -173 -562 -156 -1246 -406 -1745 -636 -44 -21 -109 -51
-145 -67 -164 -75 -505 -248 -685 -348 -33 -18 -80 -44 -105 -58 -85 -46 -135
-76 -140 -83 -7 -11 4 -549 15 -659 2 -25 7 -94 10 -155 3 -60 8 -123 10 -140
2 -16 7 -66 10 -110 7 -86 12 -145 20 -212 3 -24 7 -64 10 -90 10 -86 17 -148
20 -163 2 -8 6 -40 9 -71 4 -31 9 -67 11 -80 3 -13 7 -44 10 -69 3 -25 7 -56
10 -70 3 -14 7 -41 10 -60 2 -19 7 -46 9 -60 3 -14 8 -41 10 -60 2 -20 11 -74
20 -120 9 -47 18 -97 20 -113 3 -15 7 -35 10 -45 3 -9 7 -33 10 -52 10 -69 73
-358 111 -510 2 -8 11 -44 19 -80 8 -36 28 -117 45 -180 18 -63 39 -142 47
-175 89 -339 354 -1110 479 -1390 7 -16 41 -95 75 -175 119 -277 269 -592 398
-835 124 -234 166 -311 189 -347 13 -21 23 -40 23 -43 0 -2 16 -29 35 -59 19
-30 35 -57 35 -60 0 -2 22 -41 50 -86 27 -45 50 -84 50 -86 0 -3 5 -10 10 -17
6 -7 31 -46 57 -87 186 -301 509 -769 688 -995 255 -324 360 -452 539 -655
237 -269 574 -617 826 -850 68 -63 134 -125 147 -137 13 -12 74 -66 136 -120
61 -54 114 -101 117 -104 3 -3 84 -70 180 -149 96 -78 184 -150 195 -159 11
-9 38 -30 60 -46 22 -16 42 -32 45 -36 3 -3 32 -25 65 -50 33 -24 66 -50 75
-56 8 -7 49 -37 90 -67 41 -31 80 -59 85 -64 25 -20 350 -245 440 -303 232
-153 301 -195 502 -315 l121 -72 134 79 c73 43 157 93 187 111 96 60 527 345
612 407 46 33 102 73 124 89 356 255 751 577 1095 892 157 144 174 160 330
314 250 247 404 410 652 691 319 360 781 973 1045 1385 116 181 293 468 293
474 0 2 17 33 38 67 44 73 88 152 209 374 132 242 450 912 468 986 5 21 0 26
-32 41 -21 9 -112 52 -203 95 -91 43 -190 89 -220 102 -30 13 -95 42 -145 63
-49 22 -178 75 -285 118 -350 139 -449 176 -770 280 -140 46 -256 84 -258 85
-1 1 34 91 77 201 44 109 98 251 122 314 106 292 229 693 305 995 32 130 87
368 97 425 3 14 8 36 11 50 3 14 8 36 10 50 2 14 7 36 10 50 7 32 15 76 21
120 3 19 7 42 10 50 2 8 7 33 10 55 3 23 8 52 10 65 5 26 33 207 41 270 2 19
6 50 9 68 5 30 2 34 -32 49 -21 8 -49 20 -63 26 -14 6 -27 11 -30 11 -3 1 -63
25 -135 53 -178 71 -289 111 -500 181 -154 52 -493 154 -551 167 -11 2 -89 22
-174 44 -136 35 -418 100 -505 115 -72 13 -142 26 -165 31 -66 14 -96 19 -165
29 -16 2 -57 9 -90 15 -65 11 -87 14 -215 31 -47 6 -96 13 -110 15 -23 3 -105
12 -185 20 -16 2 -57 6 -90 10 -244 26 -342 30 -342 14 0 -27 -14 -154 -18
-169 -3 -8 -6 -31 -9 -50 -5 -38 -24 -160 -32 -200 -2 -14 -7 -40 -10 -59 -7
-43 -10 -60 -29 -151 -8 -41 -17 -86 -20 -100 -20 -106 -115 -491 -161 -650
-30 -107 -56 -199 -58 -205 -18 -64 -34 -117 -76 -243 -26 -81 -53 -159 -58
-172 -6 -14 -23 -59 -38 -100 -30 -84 -36 -99 -92 -221 -22 -48 -44 -89 -50
-93 -10 -6 -78 135 -137 284 -69 176 -237 706 -270 850 -2 8 -22 89 -45 180
-23 91 -44 176 -46 190 -3 14 -12 54 -20 90 -8 36 -26 119 -39 185 -21 104
-29 149 -50 267 -14 79 -35 223 -41 278 -7 73 -20 114 -32 106 -5 -3 -42 -7
-83 -10 -78 -6 -164 -14 -239 -21 -126 -13 -159 -16 -200 -21 -25 -3 -56 -7
-70 -9 -14 -2 -47 -7 -75 -10 -69 -7 -99 -12 -180 -25 -38 -6 -83 -13 -100
-16 -16 -2 -42 -7 -57 -10 -15 -3 -40 -7 -57 -9 -73 -9 -288 -52 -491 -97 -74
-16 -142 -31 -150 -33 -8 -1 -35 -8 -60 -15 -25 -7 -52 -13 -60 -15 -35 -7
-158 -40 -340 -91 -326 -93 -779 -249 -1064 -368 -117 -49 -110 -33 -85 -206
27 -182 29 -196 60 -370 71 -399 146 -710 275 -1145 221 -748 544 -1498 938
-2175 154 -265 269 -447 440 -695 128 -185 486 -660 525 -695 4 -3 42 -48 85
-100 44 -52 87 -102 95 -111 9 -9 45 -49 81 -90 230 -262 644 -671 926 -915
154 -134 185 -159 191 -154 4 3 7 429 7 948 l1 943 -33 37 c-18 20 -45 51 -59
67 -15 17 -56 64 -93 105 -154 175 -383 467 -541 690 -40 58 -77 107 -81 108
-5 2 -8 8 -8 12 0 5 -40 69 -89 142 -303 456 -592 1014 -802 1548 -27 69 -54
134 -59 145 -53 117 -246 728 -289 917 -8 36 -7 38 23 47 52 17 335 88 441
111 55 12 107 23 115 25 8 2 29 7 45 10 l30 6 24 -83 c85 -295 289 -860 391
-1082 16 -37 30 -68 30 -70 0 -8 83 -183 156 -331 292 -589 643 -1133 1058
-1637 l104 -128 77 93 c42 50 85 102 95 114 116 137 396 527 532 741 67 106
228 373 228 378 0 2 14 27 31 55 62 107 189 353 282 549 174 369 337 797 472
1240 26 85 49 156 50 158 1 2 54 -9 116 -23 63 -14 127 -28 143 -31 16 -3 32
-7 36 -9 3 -2 18 -6 33 -9 15 -4 39 -8 54 -11 24 -5 225 -59 264 -71 16 -4 16
-10 2 -62 -8 -31 -17 -64 -18 -72 -10 -44 -82 -284 -125 -415 -167 -517 -363
-977 -628 -1475 -51 -96 -237 -418 -268 -465 -8 -11 -69 -103 -136 -204 -151
-230 -302 -437 -465 -641 -31 -39 -119 -146 -128 -156 -5 -6 -30 -35 -55 -65
-25 -29 -84 -98 -132 -151 -49 -54 -88 -104 -89 -111 -1 -15 -1 -1867 0 -1885
1 -11 128 90 207 163 12 11 52 47 90 80 164 144 547 520 720 710 365 399 757
902 1032 1325 34 52 66 100 70 105 4 6 26 39 47 75 60 98 63 103 76 128 8 15
18 21 28 16 9 -3 21 -7 26 -8 88 -21 615 -188 632 -201 7 -5 -392 -639 -440
-700 -4 -5 -64 -88 -133 -184 -109 -151 -269 -366 -284 -381 -3 -3 -43 -52
-90 -110 -86 -107 -289 -348 -325 -386 -11 -12 -56 -61 -100 -110 -191 -212
-519 -539 -746 -745 -229 -207 -577 -494 -799 -657 -25 -19 -79 -58 -120 -89
-41 -30 -117 -84 -168 -120 l-92 -65 -98 68 c-247 171 -652 485 -857 665 -458
401 -743 684 -1121 1109 -138 155 -356 424 -506 624 -54 72 -101 136 -106 141
-59 77 -371 537 -428 632 -10 18 -58 97 -105 175 -86 142 -176 300 -259 453
-51 93 -257 507 -290 580 -12 28 -34 75 -47 105 -206 450 -414 1026 -557 1540
-67 243 -73 264 -102 390 -14 63 -35 151 -45 195 -11 44 -22 94 -25 110 -2 17
-11 62 -19 100 -25 123 -54 280 -59 319 -3 21 -7 46 -10 55 -3 9 -8 39 -11 66
-4 28 -8 66 -11 85 -2 19 -6 42 -9 50 -2 8 -7 40 -10 70 -3 30 -8 66 -10 80
-2 14 -7 50 -10 80 -3 30 -8 66 -10 80 -2 14 -6 54 -10 90 -4 36 -8 76 -10 90
-2 14 -6 63 -10 110 -3 47 -9 93 -11 102 -4 14 20 30 122 79 71 33 154 71 186
85 32 13 84 36 115 50 66 29 72 31 173 72 456 186 903 335 1385 461 168 44
497 121 580 135 17 3 39 8 50 10 11 2 58 11 105 20 47 9 94 18 105 20 11 2 40
7 65 11 25 4 54 9 65 11 43 7 212 33 255 39 25 3 56 8 70 10 14 2 50 7 80 10
30 3 66 8 80 10 51 8 263 29 400 41 41 3 91 7 110 9 50 5 258 16 375 21 140 6
729 6 850 0 178 -9 309 -16 365 -21 30 -2 89 -7 130 -10 41 -3 91 -8 110 -10
19 -2 62 -7 95 -10 138 -13 315 -34 335 -40 8 -2 40 -6 70 -10 30 -3 69 -8 85
-10 17 -3 59 -10 95 -15 336 -54 723 -135 1030 -215 74 -20 145 -38 157 -41
48 -10 427 -126 588 -180 374 -124 768 -282 1164 -465 l93 -43 -7 -100 c-4
-55 -8 -107 -10 -115 -1 -9 -6 -50 -9 -92 -4 -42 -9 -87 -11 -100 -2 -13 -9
-67 -15 -119 -6 -52 -13 -106 -16 -120 -2 -14 -7 -45 -10 -70 -6 -55 -13 -100
-19 -120 -2 -8 -6 -35 -9 -60 -4 -25 -9 -58 -11 -75 -18 -99 -26 -143 -30
-165 -3 -14 -8 -38 -10 -55 -12 -67 -68 -337 -92 -435 -13 -58 -26 -114 -29
-125 -2 -11 -31 -119 -64 -240 -33 -121 -63 -231 -66 -244 -3 -14 -7 -28 -10
-33 -3 -4 -7 -16 -9 -25 -2 -10 -30 -103 -64 -208 -33 -104 -57 -193 -53 -196
4 -3 48 -21 97 -39 297 -108 779 -315 1101 -472 l72 -35 32 96 c69 210 164
514 205 662 109 387 245 999 290 1304 4 22 8 47 10 55 2 8 7 40 10 70 4 30 8
57 10 60 2 4 7 31 10 61 3 30 10 81 15 114 5 33 12 85 15 115 3 30 8 66 10 80
2 14 6 54 10 90 4 36 8 76 10 90 2 14 6 61 10 105 4 44 8 94 10 110 2 17 6 68
10 115 3 47 7 110 10 140 12 143 23 411 25 644 1 104 -2 142 -12 151 -12 12
-187 110 -363 205 -83 45 -504 255 -565 283 -19 8 -89 40 -155 70 -278 127
-574 246 -930 375 -111 40 -563 189 -600 197 -11 3 -67 18 -125 35 -205 60
-553 148 -745 189 -55 12 -118 26 -140 31 -51 12 -337 67 -390 74 -43 7 -47 8
-140 24 -33 6 -78 14 -100 17 -22 3 -67 10 -100 15 -33 5 -87 12 -120 15 -33
4 -67 8 -75 10 -8 2 -42 7 -75 10 -33 4 -71 8 -85 11 -14 2 -77 9 -140 14 -63
6 -126 12 -140 15 -14 2 -63 7 -110 10 -47 3 -105 8 -130 10 -25 3 -92 8 -150
11 -58 3 -136 8 -175 10 -83 5 -952 14 -957 9z"/>
</g>
</svg>
